<svg preserveAspectRatio="none" width="100%" height="100%" overflow="visible" style="display: block;" viewBox="0 0 31 28" fill="none" xmlns="http://www.w3.org/2000/svg">
<g id="Group">
<path id="Vector" d="M23.7499 23.7451C14.3388 25.083 6.40196 25.8487 1.34156 25.8487C0.63183 25.8487 0 25.2795 0 24.6842V3.00672C0 2.08205 0.553933 1.63417 1.69642 1.63417H17.3162C18.4558 1.63417 19.0126 2.14851 19.0126 3.21188V5.26347C19.0126 6.46264 18.4587 7.04344 17.3162 7.04344H5.89419V20.529L6.00671 20.5233C10.6459 20.2863 15.6832 19.6911 20.986 18.752L21.1331 18.726L18.9722 14.5881C18.4962 13.6808 18.5077 12.6001 19.001 11.7014L25.0395 0.677726C25.2068 0.371432 25.4809 0.148936 25.8156 0.0535801C26.1502 -0.0446652 26.5022 -0.00710114 26.808 0.160494L29.8345 1.82488C30.1403 1.99248 30.3624 2.26699 30.4576 2.60218C30.5557 2.93737 30.5153 3.28989 30.3509 3.59619L25.3742 12.681C25.1953 13.0075 25.1895 13.4005 25.3626 13.7328L30.5269 23.6151C30.8587 24.2537 30.6134 25.0425 29.9758 25.3748L26.9148 26.9786C26.2772 27.3109 25.4896 27.0652 25.1578 26.4267L23.7527 23.7422L23.7499 23.7451Z" fill="var(--fill-0, white)"/>
<path id="Vector_2" d="M16.9642 11.6119V14.3627C16.9642 14.8048 16.6324 15.166 16.2227 15.166H13.704C13.2944 15.166 12.9597 14.8048 12.9597 14.3627V11.6119C12.9597 11.1698 13.2944 10.8086 13.704 10.8086H16.2227C16.6324 10.8086 16.9642 11.1698 16.9642 11.6119Z" fill="var(--fill-0, white)"/>
</g>
</svg>
