<svg preserveAspectRatio="none" width="100%" height="100%" overflow="visible" style="display: block;" viewBox="0 0 88 88" fill="none" xmlns="http://www.w3.org/2000/svg">
<g id="Frame 5181">
<path id="Vector" d="M54.081 48.5165C53.9651 50.6605 55.1551 52.7496 57.0541 53.7292C58.5838 54.5158 60.2104 54.5561 61.6214 54.0397C62.2971 53.7876 62.9628 54.4462 62.7745 55.149L59.4718 67.4747C59.3424 67.9579 58.8436 68.248 58.3634 68.1193L46.106 64.835C45.4163 64.6502 45.183 63.7402 45.7352 63.2855C46.7598 62.4302 47.4906 61.2042 47.7084 59.7277C48.0795 57.1907 46.6169 54.6519 44.2501 53.707C41.0624 52.4386 37.5877 54.2664 36.7214 57.4994C36.413 58.6502 36.4838 59.818 36.8508 60.8579C37.101 61.5652 36.494 62.2594 35.7781 62.0676L22.6739 58.5563C22.1937 58.4277 21.9068 57.9271 22.0363 57.4439L25.572 44.2485C25.7579 43.5544 25.0923 42.8958 24.4252 43.1502C23.1775 43.6163 21.758 43.6408 20.3797 43.0926C18.0129 42.1477 16.5614 39.6025 16.9325 37.0654C17.4358 33.6505 20.7447 31.5334 23.9574 32.3942C25.1011 32.7007 26.0697 33.3463 26.7803 34.1864C27.2633 34.7584 28.1637 34.5759 28.3567 33.8555L31.6594 21.5298C31.7889 21.0466 32.2877 20.7566 32.7678 20.8852L44.999 24.1626C45.6974 24.3497 45.9308 25.2597 45.3738 25.7319C44.2132 26.7109 43.4299 28.1676 43.3587 29.8999C43.2713 32.0422 44.4684 34.1049 46.3785 35.0781C49.6903 36.7564 53.4877 34.9115 54.3987 31.5116C54.7071 30.3607 54.6451 29.1954 54.2693 28.1531C54.0191 27.4458 54.6262 26.7516 55.3421 26.9434L68.4375 30.4523C68.9177 30.581 69.2046 31.0816 69.0752 31.5648L65.5442 44.7426C65.3511 45.463 64.442 45.6431 63.9677 45.0735C63.2571 44.2334 62.2949 43.5989 61.1512 43.2925C57.7639 42.3848 54.2655 44.7901 54.07 48.523L54.081 48.5165Z" fill="var(--fill-0, #1B1D1F)"/>
</g>
</svg>
