<svg preserveAspectRatio="none" width="100%" height="100%" overflow="visible" style="display: block;" viewBox="0 0 172 55" fill="none" xmlns="http://www.w3.org/2000/svg">
<g id="Group">
<path id="Vector" d="M37.2895 38.6322H2.15805C0.724173 38.6322 0.00578924 39.3315 0.00578924 40.733V43.8595C0.00578924 45.3332 0.741479 46.07 2.21286 46.07H31.427V52.8056C31.427 54.1348 32.1627 54.7994 33.6341 54.7994H37.6703C38.9975 54.7994 39.661 54.1348 39.661 52.8056V40.8428C39.661 39.3691 38.8734 38.6322 37.2924 38.6322H37.2895Z" fill="var(--fill-0, #1B1D1F)"/>
<path id="Vector_2" d="M46.5851 30.764C54.0084 30.764 63.3358 29.8307 74.5616 27.9611V28.7153C74.5616 30.189 75.2973 30.9258 76.7687 30.9258H81.0732C82.5446 30.9258 83.2803 30.2439 83.2803 28.8771V2.90569C83.2803 1.64873 82.5619 1.0188 81.128 1.0188H76.7168C75.2829 1.0188 74.5645 1.64873 74.5645 2.90569V20.3644C67.3894 22.0895 60.145 23.1124 52.8284 23.4361V19.2866H66.4402C68.0183 19.2866 68.8088 18.4602 68.8088 16.8074V14.2212C68.7742 12.6753 68.001 11.9038 66.495 11.9038H52.8284V9.47945H69.0223C70.7072 9.47945 71.5496 8.65303 71.5496 7.0002V4.41404C71.4775 2.86812 70.6524 2.09661 69.0742 2.09661H47.1766C45.5985 2.09661 44.8079 2.74387 44.8079 4.03551V29.2527C44.8079 30.2583 45.3994 30.7611 46.5823 30.7611L46.5851 30.764Z" fill="var(--fill-0, #1B1D1F)"/>
<path id="Vector_3" d="M81.0184 32.8127H46.6919C45.3994 32.8127 44.756 33.5119 44.756 34.9134V37.8232C44.756 39.0079 45.4369 39.6003 46.8015 39.6003H74.8328V41.4871H46.9631C45.4917 41.4871 44.756 42.2066 44.756 43.6428V52.6409C44.756 54.1492 45.5436 54.9034 47.1246 54.9034H81.3963C82.6889 54.9034 83.3322 54.2937 83.3322 53.0714V49.7311C83.3322 48.5088 82.6513 47.9164 81.2867 47.954H53.3102V45.9053H81.5031C82.7235 45.9053 83.3322 45.3852 83.3322 44.342V34.6967C83.3322 33.4397 82.5619 32.8098 81.0184 32.8098V32.8127Z" fill="var(--fill-0, #1B1D1F)"/>
<path id="Vector_4" d="M125.068 1.07369H120.818C119.274 1.07369 118.504 1.72095 118.504 3.01258V41.1086C111.762 43.6225 104.445 45.0413 96.5516 45.3649V23.1095H111.724C113.302 23.1095 114.093 22.3727 114.093 20.899V4.19731C114.093 2.83343 113.34 2.1486 111.834 2.1486H90.5276C89.1658 2.1486 88.4821 2.86811 88.4821 4.30422V8.02309C88.4821 9.35229 89.2524 10.0169 90.7959 10.0169H106.13V15.4579H90.4728C89.1456 15.4579 88.4821 16.0676 88.4821 17.2899V51.4533C88.4821 52.8894 89.1456 53.6089 90.4728 53.6089C98.9376 53.6089 108.282 52.3519 118.504 49.838V52.5311C118.504 54.0394 119.274 54.7936 120.818 54.7936H124.906C126.377 54.7936 127.113 54.0394 127.113 52.5311V3.1744C127.113 1.77296 126.432 1.07369 125.068 1.07369Z" fill="var(--fill-0, #1B1D1F)"/>
<path id="Vector_5" d="M169.656 1.0188H164.706C163.485 1.0188 162.876 1.66606 162.876 2.9577V41.5941C156.708 43.7844 149.409 45.1338 140.979 45.6366V24.9444H153.621C155.271 24.9444 156.097 24.1729 156.097 22.627V19.4485C156.097 17.8679 155.217 17.0761 153.46 17.0761H140.979V10.0169H156.743C158.142 10.0169 158.84 9.29741 158.84 7.86129V4.03551C158.84 2.77855 158.194 2.14862 156.904 2.14862H134.522C133.088 2.14862 132.37 2.8479 132.37 4.24934V51.7769C132.37 53.0339 133.051 53.6638 134.415 53.6638C144.424 53.6638 153.892 52.245 162.822 49.4075V53.1263C162.822 54.2388 163.413 54.7965 164.596 54.7965H169.437C170.799 54.7965 171.483 54.2042 171.483 53.0194V2.85079C171.483 1.6285 170.874 1.0188 169.653 1.0188H169.656Z" fill="var(--fill-0, #1B1D1F)"/>
<path id="Vector_6" d="M33.5591 18.1017C33.3542 17.7116 33.36 17.2435 33.5706 16.8563L40.1024 4.93396C40.5958 4.0353 40.2669 2.90837 39.3696 2.41426L35.394 0.229744C34.4967 -0.264372 33.3716 0.0650391 32.8782 0.963694L24.95 15.4318C24.2836 16.6511 24.2663 18.1219 24.9125 19.3558L27.6591 24.6148C20.6802 25.8515 14.131 26.6259 8.0176 26.938V9.53415H22.867C24.4452 9.53415 25.2357 8.70773 25.2357 7.0549V4.36182C25.2357 2.88815 24.448 2.15131 22.867 2.15131H2.36864C0.79051 2.15131 0 2.79857 0 4.0902V32.7576C0 33.7285 0.591441 34.2139 1.77432 34.2139C8.77349 34.2139 19.5867 33.1448 31.2453 31.4862L33.0282 34.8988C33.5014 35.8061 34.6208 36.1586 35.5267 35.6818L39.5427 33.5753C40.4486 33.1014 40.8006 31.9803 40.3246 31.073L33.5475 18.1017H33.5591Z" fill="var(--fill-0, #1B1D1F)"/>
<path id="Vector_7" d="M18.1326 14.1836C17.5152 14.1836 17.0161 14.7211 17.0161 15.3799V18.9919C17.0161 19.6536 17.5152 20.1882 18.1326 20.1882H21.4389C22.0563 20.1882 22.5554 19.6536 22.5554 18.9919V15.3799C22.5554 14.7182 22.0563 14.1836 21.4389 14.1836H18.1326Z" fill="var(--fill-0, #1B1D1F)"/>
</g>
</svg>
