<svg preserveAspectRatio="none" width="100%" height="100%" overflow="visible" style="display: block;" viewBox="0 0 50 48" fill="none" xmlns="http://www.w3.org/2000/svg">
<g id="Layer_1" clip-path="url(#clip0_2208_1974)">
<path id="Vector" d="M0 46.81V28.41C0 28.15 0.21 27.94 0.47 27.94H6.88C7.25 27.94 7.49 28.36 7.28 28.67C6.88 29.24 6.67 29.95 6.76 30.72C6.92 32.04 8 33.12 9.32 33.27C11.1 33.48 12.61 32.09 12.61 30.36C12.61 29.74 12.42 29.17 12.09 28.69C11.87 28.37 12.08 27.94 12.47 27.94H18.88C19.14 27.94 19.35 28.15 19.35 28.41V34.82C19.35 35.19 19.77 35.43 20.08 35.22C20.65 34.82 21.36 34.61 22.13 34.7C23.45 34.86 24.53 35.94 24.68 37.26C24.89 39.04 23.5 40.55 21.77 40.55C21.15 40.55 20.58 40.36 20.1 40.03C19.78 39.81 19.35 40.02 19.35 40.41V46.82C19.35 47.08 19.14 47.29 18.88 47.29H0.47C0.21 47.29 0 47.08 0 46.82V46.81Z" fill="var(--fill-0, #CCDDFF)"/>
<path id="Vector_2" d="M38.24 47.28H19.84C19.58 47.28 19.37 47.07 19.37 46.81V40.4C19.37 40.03 19.79 39.79 20.1 40C20.67 40.4 21.38 40.61 22.15 40.52C23.47 40.36 24.55 39.28 24.7 37.96C24.91 36.18 23.52 34.67 21.79 34.67C21.17 34.67 20.6 34.86 20.12 35.19C19.8 35.41 19.37 35.2 19.37 34.81V28.4C19.37 28.14 19.58 27.93 19.84 27.93H26.25C26.62 27.93 26.86 27.51 26.65 27.2C26.25 26.63 26.04 25.92 26.13 25.15C26.29 23.83 27.37 22.75 28.69 22.6C30.47 22.39 31.98 23.78 31.98 25.51C31.98 26.13 31.79 26.7 31.46 27.18C31.24 27.5 31.45 27.93 31.84 27.93H38.25C38.51 27.93 38.72 28.14 38.72 28.4V46.8C38.72 47.06 38.51 47.27 38.25 47.27L38.24 47.28Z" fill="var(--fill-0, #3377FF)"/>
<path id="Vector_3" d="M0.47 8.57H18.87C19.13 8.57 19.34 8.78 19.34 9.04V15.45C19.34 15.82 18.92 16.06 18.61 15.85C18.04 15.45 17.33 15.24 16.56 15.33C15.24 15.49 14.16 16.57 14.01 17.89C13.8 19.67 15.19 21.18 16.92 21.18C17.54 21.18 18.11 20.99 18.59 20.66C18.91 20.44 19.34 20.65 19.34 21.04V27.45C19.34 27.71 19.13 27.92 18.87 27.92H12.46C12.09 27.92 11.85 28.34 12.06 28.65C12.46 29.22 12.67 29.93 12.58 30.7C12.42 32.02 11.34 33.1 10.02 33.25C8.24 33.46 6.73 32.07 6.73 30.34C6.73 29.72 6.92 29.15 7.25 28.67C7.47 28.35 7.26 27.92 6.87 27.92H0.47C0.21 27.92 0 27.71 0 27.45V9.04C0 8.78 0.21 8.57 0.47 8.57Z" fill="var(--fill-0, #3377FF)"/>
<path id="Vector_4" d="M49.95 8.68L41.95 25.25C41.84 25.48 41.55 25.58 41.32 25.47L35.55 22.68C35.21 22.52 35.18 22.03 35.51 21.85C36.12 21.51 36.61 20.96 36.86 20.23C37.29 18.97 36.79 17.53 35.67 16.82C34.16 15.86 32.2 16.45 31.44 18.01C31.17 18.57 31.09 19.17 31.18 19.74C31.24 20.12 30.86 20.42 30.51 20.25L24.74 17.46C24.51 17.35 24.41 17.06 24.52 16.83L27.31 11.06C27.47 10.72 27.2 10.32 26.83 10.39C26.15 10.5 25.41 10.38 24.76 9.96C23.64 9.25 23.14 7.8 23.57 6.55C24.16 4.86 26.06 4.1 27.62 4.86C28.18 5.13 28.61 5.55 28.89 6.05C29.08 6.39 29.56 6.39 29.73 6.04L32.52 0.27C32.63 0.04 32.92 -0.06 33.15 0.05L49.72 8.05C49.95 8.16 50.05 8.45 49.94 8.68H49.95Z" fill="var(--fill-0, #24282D)"/>
</g>
<defs>
<clipPath id="clip0_2208_1974">
<rect width="50" height="47.28" fill="white"/>
</clipPath>
</defs>
</svg>
