<svg width="240" height="55" viewBox="0 0 240 55" fill="none" xmlns="http://www.w3.org/2000/svg">
<g clip-path="url(#clip0_60_2199)">
<path d="M105.804 38.7289H70.6725C69.2386 38.7289 68.5203 39.4282 68.5203 40.8296V43.9561C68.5203 45.4298 69.256 46.1666 70.7273 46.1666H99.9415V52.9022C99.9415 54.2314 100.677 54.896 102.149 54.896H106.185C107.512 54.896 108.175 54.2314 108.175 52.9022V40.9394C108.175 39.4657 107.388 38.7289 105.807 38.7289H105.804Z" fill="#1B1D1F"/>
<path d="M115.1 30.8606C122.523 30.8606 131.85 29.9272 143.076 28.0577V28.8118C143.076 30.2855 143.812 31.0224 145.283 31.0224H149.588C151.059 31.0224 151.795 30.3404 151.795 28.9737V3.00224C151.795 1.74528 151.076 1.11536 149.643 1.11536H145.231C143.797 1.11536 143.079 1.74528 143.079 3.00224V20.461C135.904 22.1861 128.66 23.209 121.343 23.5326V19.3832H134.955C136.533 19.3832 137.323 18.5568 137.323 16.9039V14.3178C137.289 12.7719 136.516 12.0004 135.01 12.0004H121.343V9.57601H137.537C139.222 9.57601 140.064 8.74959 140.064 7.09676V4.5106C139.992 2.96468 139.167 2.19316 137.589 2.19316H115.691C114.113 2.19316 113.323 2.84043 113.323 4.13206V29.3493C113.323 30.3549 113.914 30.8577 115.097 30.8577L115.1 30.8606Z" fill="#1B1D1F"/>
<path d="M149.533 32.9093H115.206C113.914 32.9093 113.271 33.6085 113.271 35.01V37.9198C113.271 39.1045 113.951 39.6969 115.316 39.6969H143.347V41.5837H115.478C114.006 41.5837 113.271 42.3032 113.271 43.7394V52.7375C113.271 54.2458 114.058 55 115.639 55H149.911C151.203 55 151.847 54.3903 151.847 53.168V49.8277C151.847 48.6054 151.166 48.013 149.801 48.0506H121.825V46.0019H150.018C151.238 46.0019 151.847 45.4818 151.847 44.4386V34.7933C151.847 33.5363 151.076 32.9064 149.533 32.9064V32.9093Z" fill="#1B1D1F"/>
<path d="M193.582 1.17029H189.332C187.789 1.17029 187.019 1.81755 187.019 3.10919V41.2052C180.276 43.7192 172.96 45.1379 165.066 45.4616V23.2061H180.239C181.817 23.2061 182.607 22.4693 182.607 20.9956V4.29391C182.607 2.93003 181.854 2.24521 180.348 2.24521H159.042C157.68 2.24521 156.997 2.96471 156.997 4.40082V8.11969C156.997 9.44889 157.767 10.1135 159.31 10.1135H174.645V15.5545H158.987C157.66 15.5545 156.997 16.1642 156.997 17.3865V51.5499C156.997 52.986 157.66 53.7055 158.987 53.7055C167.452 53.7055 176.797 52.4485 187.019 49.9346V52.6277C187.019 54.136 187.789 54.8902 189.332 54.8902H193.421C194.892 54.8902 195.628 54.136 195.628 52.6277V3.271C195.628 1.86956 194.947 1.17029 193.582 1.17029Z" fill="#1B1D1F"/>
<path d="M238.171 1.11536H233.22C232 1.11536 231.391 1.76262 231.391 3.05426V41.6906C225.223 43.8809 217.923 45.2304 209.493 45.7331V25.041H222.136C223.786 25.041 224.611 24.2694 224.611 22.7235V19.545C224.611 17.9644 223.731 17.1727 221.974 17.1727H209.493V10.1135H225.257C226.657 10.1135 227.355 9.39396 227.355 7.95785V4.13206C227.355 2.8751 226.709 2.24518 225.419 2.24518H203.037C201.603 2.24518 200.884 2.94445 200.884 4.34589V51.8735C200.884 53.1304 201.565 53.7604 202.93 53.7604C212.938 53.7604 222.407 52.3416 231.336 49.504V53.2229C231.336 54.3354 231.928 54.8931 233.11 54.8931H237.952C239.313 54.8931 239.997 54.3007 239.997 53.116V2.94734C239.997 1.72505 239.388 1.11536 238.168 1.11536H238.171Z" fill="#1B1D1F"/>
<path d="M102.074 18.1983C101.869 17.8082 101.875 17.3401 102.085 16.9529L108.617 5.03058C109.11 4.13192 108.781 3.00499 107.884 2.51087L103.909 0.326363C103.011 -0.167753 101.886 0.161658 101.393 1.06031L93.4646 15.5284C92.7981 16.7478 92.7808 18.2186 93.4271 19.4524L96.1737 24.7114C89.1947 25.9481 82.6456 26.7225 76.5321 27.0346V9.63077H91.3816C92.9597 9.63077 93.7502 8.80435 93.7502 7.15152V4.45844C93.7502 2.98476 92.9626 2.24792 91.3816 2.24792H70.8832C69.305 2.24792 68.5145 2.89519 68.5145 4.18682V32.8542C68.5145 33.8251 69.106 34.3106 70.2888 34.3106C77.288 34.3106 88.1012 33.2414 99.7598 31.5828L101.543 34.9954C102.016 35.9027 103.135 36.2552 104.041 35.7785L108.057 33.672C108.963 33.1981 109.315 32.0769 108.839 31.1696L102.062 18.1983H102.074Z" fill="#1B1D1F"/>
<path d="M86.6472 14.2803C86.0298 14.2803 85.5306 14.8177 85.5306 15.4766V19.0885C85.5306 19.7502 86.0298 20.2848 86.6472 20.2848H89.9535C90.5709 20.2848 91.07 19.7502 91.07 19.0885V15.4766C91.07 14.8148 90.5709 14.2803 89.9535 14.2803H86.6472Z" fill="#1B1D1F"/>
<path d="M54.8163 0H0V54.9018H54.8163V0Z" fill="#1B1D1F"/>
<path d="M35.8238 37.6308C26.4128 38.9687 18.4759 39.7344 13.4155 39.7344C12.7058 39.7344 12.074 39.1652 12.074 38.5699V16.8924C12.074 15.9677 12.6279 15.5199 13.7704 15.5199H29.3901C30.5297 15.5199 31.0866 16.0342 31.0866 17.0976V19.1491C31.0866 20.3483 30.5326 20.9291 29.3901 20.9291H17.9682V34.4147L18.0807 34.409C22.7199 34.172 27.7572 33.5768 33.0599 32.6376L33.2071 32.6116L31.0462 28.4738C30.5701 27.5665 30.5817 26.4858 31.075 25.5871L37.1135 14.5634C37.2808 14.2571 37.5549 14.0346 37.8895 13.9393C38.2242 13.841 38.5762 13.8786 38.882 14.0462L41.9084 15.7106C42.2143 15.8782 42.4364 16.1527 42.5316 16.4879C42.6297 16.823 42.5893 17.1756 42.4249 17.4819L37.4481 26.5667C37.2693 26.8932 37.2635 27.2862 37.4366 27.6185L42.6009 37.5008C42.9326 38.1394 42.6874 38.9282 42.0498 39.2605L38.9888 40.8642C38.3512 41.1965 37.5635 40.9509 37.2318 40.3123L35.8267 37.6279L35.8238 37.6308Z" fill="white"/>
<path d="M29.0382 25.4975V28.2484C29.0382 28.6905 28.7064 29.0517 28.2967 29.0517H25.778C25.3684 29.0517 25.0337 28.6905 25.0337 28.2484V25.4975C25.0337 25.0554 25.3684 24.6942 25.778 24.6942H28.2967C28.7064 24.6942 29.0382 25.0554 29.0382 25.4975Z" fill="white"/>
</g>
<defs>
<clipPath id="clip0_60_2199">
<rect width="240" height="55" fill="white"/>
</clipPath>
</defs>
</svg>
